<svg width="40" height="35" viewBox="0 0 40 35" fill="none" xmlns="http://www.w3.org/2000/svg">
<rect width="40" height="35" fill="#F5F5F5"/>
<path d="M18 14C18 13.2044 17.6839 12.4413 17.1213 11.8787C16.5587 11.3161 15.7956 11 15 11C14.2044 11 13.4413 11.3161 12.8787 11.8787C12.3161 12.4413 12 13.2044 12 14L12.9 14C12.9 13.443 13.1212 12.9089 13.5151 12.5151C13.9089 12.1212 14.443 11.9 15 11.9C15.557 11.9 16.0911 12.1212 16.4849 12.5151C16.8788 12.9089 17.1 13.443 17.1 14H18Z" fill="black"/>
<path d="M7 8.99999C7 6.23857 9.23858 4 12 4H28C30.7614 4 33 6.23858 33 9V23.1612C33 25.1317 31.8426 26.9185 30.0442 27.7242L22.4681 31.1183C21.2119 31.681 19.7794 31.7011 18.508 31.1737L10.0842 27.6794C8.2171 26.9049 7 25.0823 7 23.061V8.99999Z" stroke="black" stroke-width="1.5"/>
<path d="M29 14C29 13.606 28.9224 13.2159 28.7716 12.8519C28.6209 12.488 28.3999 12.1573 28.1213 11.8787C27.8427 11.6001 27.512 11.3791 27.1481 11.2284C26.7841 11.0776 26.394 11 26 11C25.606 11 25.2159 11.0776 24.8519 11.2284C24.488 11.3791 24.1573 11.6001 23.8787 11.8787C23.6001 12.1573 23.3791 12.488 23.2284 12.8519C23.0776 13.2159 23 13.606 23 14H23.9C23.9 13.7242 23.9543 13.4511 24.0599 13.1964C24.1654 12.9416 24.3201 12.7101 24.5151 12.5151C24.7101 12.3201 24.9416 12.1654 25.1964 12.0599C25.4511 11.9543 25.7242 11.9 26 11.9C26.2758 11.9 26.5489 11.9543 26.8036 12.0599C27.0584 12.1654 27.2899 12.3201 27.4849 12.5151C27.6799 12.7101 27.8346 12.9416 27.9401 13.1964C28.0457 13.4511 28.1 13.7242 28.1 14H29Z" fill="black"/>
<path d="M25 18C25 18.6566 24.8707 19.3068 24.6194 19.9134C24.3681 20.52 23.9998 21.0712 23.5355 21.5355C23.0712 21.9998 22.52 22.3681 21.9134 22.6194C21.3068 22.8707 20.6566 23 20 23C19.3434 23 18.6932 22.8707 18.0866 22.6194C17.48 22.3681 16.9288 21.9998 16.4645 21.5355C16.0002 21.0712 15.6319 20.52 15.3806 19.9134C15.1293 19.3068 15 18.6566 15 18H16.5C16.5 18.4596 16.5905 18.9148 16.7664 19.3394C16.9423 19.764 17.2001 20.1499 17.5251 20.4749C17.8501 20.7999 18.236 21.0577 18.6606 21.2336C19.0852 21.4095 19.5404 21.5 20 21.5C20.4596 21.5 20.9148 21.4095 21.3394 21.2336C21.764 21.0577 22.1499 20.7999 22.4749 20.4749C22.7999 20.1499 23.0577 19.764 23.2336 19.3394C23.4095 18.9148 23.5 18.4596 23.5 18H25Z" fill="black"/>
</svg>
