<svg width="22" height="24" viewBox="0 0 22 24" fill="none" xmlns="http://www.w3.org/2000/svg">
<path d="M19.8014 20.29L16.4175 16.61C17.731 14.8144 18.3671 12.5353 18.195 10.2413C18.0229 7.94733 17.0557 5.81281 15.4922 4.27667C13.9288 2.74053 11.8879 1.91954 9.78931 1.9825C7.6907 2.04546 5.69385 2.98759 4.20936 4.61517C2.72486 6.24275 1.86555 8.43207 1.80813 10.7329C1.7507 13.0338 2.49952 15.2714 3.90062 16.9855C5.30171 18.6997 7.24858 19.7601 9.34091 19.9488C11.4332 20.1375 13.512 19.4401 15.1497 18L18.5062 21.68C18.591 21.7738 18.6919 21.8482 18.803 21.8989C18.9142 21.9497 19.0334 21.9758 19.1538 21.9758C19.2742 21.9758 19.3934 21.9497 19.5046 21.8989C19.6157 21.8482 19.7166 21.7738 19.8014 21.68C19.9658 21.4936 20.0577 21.2444 20.0577 20.985C20.0577 20.7257 19.9658 20.4765 19.8014 20.29ZM10.0329 18C8.77015 18 7.53575 17.5895 6.48581 16.8203C5.43586 16.0511 4.61753 14.9579 4.13429 13.6788C3.65106 12.3997 3.52462 10.9923 3.77097 9.63439C4.01732 8.27653 4.6254 7.02925 5.5183 6.05028C6.41121 5.07131 7.54884 4.40463 8.78733 4.13453C10.0258 3.86443 11.3096 4.00306 12.4762 4.53287C13.6428 5.06268 14.64 5.95989 15.3415 7.11103C16.0431 8.26218 16.4175 9.61556 16.4175 11C16.4175 12.8565 15.7449 14.637 14.5475 15.9498C13.3502 17.2625 11.7262 18 10.0329 18Z" fill="#676767"/>
</svg>
