<svg width="41" height="23" viewBox="0 0 41 23" fill="none" xmlns="http://www.w3.org/2000/svg">
<path d="M1.52859 9.72783C0.684372 9.72783 0 10.4122 0 11.2564C0 12.1006 0.684372 12.785 1.52859 12.785V11.2564V9.72783ZM40.5523 12.3373C41.1492 11.7403 41.1492 10.7725 40.5523 10.1755L30.8244 0.447669C30.2274 -0.149282 29.2596 -0.149282 28.6626 0.447669C28.0657 1.04462 28.0657 2.01247 28.6626 2.60942L37.3096 11.2564L28.6626 19.9034C28.0657 20.5004 28.0657 21.4682 28.6626 22.0652C29.2596 22.6621 30.2274 22.6621 30.8244 22.0652L40.5523 12.3373ZM1.52859 11.2564V12.785H39.4714V11.2564V9.72783H1.52859V11.2564Z" fill="#ABABAB"/>
</svg>