<svg width="100" height="46" viewBox="0 0 100 46" fill="none" xmlns="http://www.w3.org/2000/svg">
<g filter="url(#filter0_d_7_64)">
<mask id="path-1-inside-1_7_64" fill="white">
<path d="M50 0H90C95.5228 0 100 4.47715 100 10V36C100 41.5228 95.5228 46 90 46H50V0Z"/>
</mask>
<path d="M50 0H90C95.5228 0 100 4.47715 100 10V36C100 41.5228 95.5228 46 90 46H50V0Z" fill="white"/>
<path d="M50 0H100H50M50 0M100 46H50H100M49 46V0H51V46H49ZM51 46M100 0V46V0" fill="#D9D9D9" mask="url(#path-1-inside-1_7_64)"/>
</g>
<path d="M0 10C0 4.47715 4.47715 0 10 0H50V46H10C4.47715 46 0 41.5228 0 36V10Z" fill="white"/>
<path d="M27 18L22 23L27 28" stroke="#CECCCC" stroke-width="1.5" stroke-linecap="round" stroke-linejoin="round"/>
<path d="M72 28L77 23L72 18" stroke="black" stroke-width="1.5" stroke-linecap="round" stroke-linejoin="round"/>
<defs>
<filter id="filter0_d_7_64" x="44" y="-2" width="62" height="58" filterUnits="userSpaceOnUse" color-interpolation-filters="sRGB">
<feFlood flood-opacity="0" result="BackgroundImageFix"/>
<feColorMatrix in="SourceAlpha" type="matrix" values="0 0 0 0 0 0 0 0 0 0 0 0 0 0 0 0 0 0 127 0" result="hardAlpha"/>
<feOffset dy="4"/>
<feGaussianBlur stdDeviation="3"/>
<feComposite in2="hardAlpha" operator="out"/>
<feColorMatrix type="matrix" values="0 0 0 0 0 0 0 0 0 0 0 0 0 0 0 0 0 0 0.25 0"/>
<feBlend mode="normal" in2="BackgroundImageFix" result="effect1_dropShadow_7_64"/>
<feBlend mode="normal" in="SourceGraphic" in2="effect1_dropShadow_7_64" result="shape"/>
</filter>
</defs>
</svg>
