<svg width="31" height="34" viewBox="0 0 31 34" fill="none" xmlns="http://www.w3.org/2000/svg">
<path d="M2 8L6.5 2H24.5L29 8M2 8V29C2 29.7956 2.31607 30.5587 2.87868 31.1213C3.44129 31.6839 4.20435 32 5 32H26C26.7956 32 27.5587 31.6839 28.1213 31.1213C28.6839 30.5587 29 29.7956 29 29V8M2 8H29M21.5 14C21.5 15.5913 20.8679 17.1174 19.7426 18.2426C18.6174 19.3679 17.0913 20 15.5 20C13.9087 20 12.3826 19.3679 11.2574 18.2426C10.1321 17.1174 9.5 15.5913 9.5 14" stroke="#1E1E1E" stroke-width="4" stroke-linecap="round" stroke-linejoin="round"/>
</svg>
