<svg width="36" height="37" viewBox="0 0 36 37" fill="none" xmlns="http://www.w3.org/2000/svg">
<path d="M17.999 24.626C20.7818 24.626 25.088 25.3677 28.6621 26.8379C30.447 27.5721 31.9557 28.4509 32.9951 29.4316C34.0238 30.4023 34.5 31.3764 34.5 32.3672V35.5H1.5V32.3779C1.50014 31.3833 1.97662 30.4069 3.00391 29.4355C4.0426 28.4536 5.55103 27.5736 7.33496 26.8389C10.9073 25.3676 15.2129 24.626 17.999 24.626ZM15.1514 2.08789C16.5194 1.50403 18.0232 1.35126 19.4736 1.64648C20.9245 1.94189 22.2632 2.67439 23.3174 3.75684C24.3719 4.83969 25.0945 6.22423 25.3867 7.7373C25.6789 9.25039 25.5267 10.8182 24.9512 12.2402C24.3757 13.662 23.4043 14.8702 22.167 15.7158C20.9304 16.5609 19.4815 17.0073 18.0039 17.0039C16.0321 16.9952 14.1352 16.1876 12.7285 14.7432C11.4084 13.3875 10.6216 11.5742 10.5215 9.6543L10.5107 9.26855C10.5076 7.72592 10.9499 6.21959 11.7783 4.94141C12.607 3.66301 13.7828 2.67201 15.1514 2.08789Z" fill="#F9A7BB" fill-opacity="0.63"/>
<path d="M17.999 24.626C20.7818 24.626 25.088 25.3677 28.6621 26.8379C30.447 27.5721 31.9557 28.4509 32.9951 29.4316C34.0238 30.4023 34.5 31.3764 34.5 32.3672V35.5H1.5V32.3779C1.50014 31.3833 1.97662 30.4069 3.00391 29.4355C4.0426 28.4536 5.55103 27.5736 7.33496 26.8389C10.9073 25.3676 15.2129 24.626 17.999 24.626ZM15.1514 2.08789C16.5194 1.50403 18.0232 1.35126 19.4736 1.64648C20.9245 1.94189 22.2632 2.67439 23.3174 3.75684C24.3719 4.83969 25.0945 6.22423 25.3867 7.7373C25.6789 9.25039 25.5267 10.8182 24.9512 12.2402C24.3757 13.662 23.4043 14.8702 22.167 15.7158C20.9304 16.5609 19.4815 17.0073 18.0039 17.0039C16.0321 16.9952 14.1352 16.1876 12.7285 14.7432C11.4084 13.3875 10.6216 11.5742 10.5215 9.6543L10.5107 9.26855C10.5076 7.72592 10.9499 6.21959 11.7783 4.94141C12.607 3.66301 13.7828 2.67201 15.1514 2.08789Z" fill="#F9A7BB" fill-opacity="0.63"/>
<path d="M17.999 24.626C20.7818 24.626 25.088 25.3677 28.6621 26.8379C30.447 27.5721 31.9557 28.4509 32.9951 29.4316C34.0238 30.4023 34.5 31.3764 34.5 32.3672V35.5H1.5V32.3779C1.50014 31.3833 1.97662 30.4069 3.00391 29.4355C4.0426 28.4536 5.55103 27.5736 7.33496 26.8389C10.9073 25.3676 15.2129 24.626 17.999 24.626ZM15.1514 2.08789C16.5194 1.50403 18.0232 1.35126 19.4736 1.64648C20.9245 1.94189 22.2632 2.67439 23.3174 3.75684C24.3719 4.83969 25.0945 6.22423 25.3867 7.7373C25.6789 9.25039 25.5267 10.8182 24.9512 12.2402C24.3757 13.662 23.4043 14.8702 22.167 15.7158C20.9304 16.5609 19.4815 17.0073 18.0039 17.0039C16.0321 16.9952 14.1352 16.1876 12.7285 14.7432C11.4084 13.3875 10.6216 11.5742 10.5215 9.6543L10.5107 9.26855C10.5076 7.72592 10.9499 6.21959 11.7783 4.94141C12.607 3.66301 13.7828 2.67201 15.1514 2.08789Z" stroke="black" stroke-width="3"/>
</svg>
