<svg width="17" height="19" viewBox="0 0 17 19" fill="none" xmlns="http://www.w3.org/2000/svg">
<path d="M16.9975 12.276C16.9954 11.7091 16.8233 11.1559 16.5034 10.6879C16.1836 10.2199 15.7307 9.85865 15.2033 9.6508L16.9692 3.04067C17.006 2.89989 17.0099 2.7525 16.9804 2.60999C16.9509 2.46747 16.8889 2.33371 16.7992 2.21912C16.7075 2.11176 16.5928 2.02634 16.4637 1.96914C16.3346 1.91194 16.1943 1.88443 16.0532 1.88862H3.11621L2.80458 0.698795C2.75041 0.497574 2.63119 0.319925 2.46551 0.19353C2.29983 0.0671357 2.09699 -0.000905468 1.88861 9.10062e-06H0V1.88862H1.16149L3.50337 10.6329C3.55871 10.8389 3.68216 11.0201 3.85363 11.147C4.02511 11.2739 4.23449 11.339 4.44768 11.3317H14.1646C14.415 11.3317 14.6552 11.4312 14.8323 11.6082C15.0094 11.7853 15.1089 12.0255 15.1089 12.276C15.1089 12.5264 15.0094 12.7666 14.8323 12.9437C14.6552 13.1208 14.415 13.2203 14.1646 13.2203H1.88861C1.63816 13.2203 1.39798 13.3198 1.22089 13.4969C1.04379 13.6739 0.944305 13.9141 0.944305 14.1646C0.944305 14.415 1.04379 14.6552 1.22089 14.8323C1.39798 15.0094 1.63816 15.1089 1.88861 15.1089H3.00289C2.84758 15.5368 2.79768 15.9958 2.8574 16.4471C2.91712 16.8983 3.08471 17.3286 3.34597 17.7013C3.60724 18.0741 3.95448 18.3784 4.3583 18.5885C4.76212 18.7986 5.21062 18.9083 5.66583 18.9083C6.12103 18.9083 6.56954 18.7986 6.97336 18.5885C7.37718 18.3784 7.72442 18.0741 7.98568 17.7013C8.24695 17.3286 8.41454 16.8983 8.47426 16.4471C8.53398 15.9958 8.48407 15.5368 8.32877 15.1089H10.5573C10.416 15.4985 10.3618 15.9144 10.3987 16.3272C10.4356 16.7401 10.5626 17.1398 10.7708 17.4982C10.979 17.8566 11.2633 18.1649 11.6037 18.4015C11.944 18.638 12.3321 18.797 12.7406 18.8672C13.1491 18.9374 13.568 18.9171 13.9678 18.8077C14.3676 18.6983 14.7386 18.5026 15.0544 18.2342C15.3703 17.9659 15.6235 17.6315 15.7961 17.2546C15.9686 16.8778 16.0564 16.4677 16.0532 16.0532C16.0514 15.5653 15.9211 15.0865 15.6755 14.6651C16.0793 14.4105 16.4122 14.058 16.6433 13.6403C16.8744 13.2226 16.9963 12.7533 16.9975 12.276ZM13.3053 9.44306H5.19368L3.62613 3.77723H14.8256L13.3053 9.44306ZM5.66583 16.9975C5.47906 16.9975 5.29649 16.9421 5.1412 16.8384C4.98591 16.7346 4.86488 16.5871 4.7934 16.4146C4.72193 16.242 4.70323 16.0521 4.73967 15.869C4.7761 15.6858 4.86604 15.5175 4.9981 15.3855C5.13017 15.2534 5.29843 15.1635 5.4816 15.127C5.66478 15.0906 5.85465 15.1093 6.0272 15.1808C6.19975 15.2522 6.34723 15.3733 6.45099 15.5286C6.55475 15.6839 6.61013 15.8664 6.61013 16.0532C6.61013 16.3036 6.51064 16.5438 6.33355 16.7209C6.15646 16.898 5.91627 16.9975 5.66583 16.9975ZM13.2203 16.9975C13.0335 16.9975 12.8509 16.9421 12.6956 16.8384C12.5403 16.7346 12.4193 16.5871 12.3478 16.4146C12.2764 16.242 12.2577 16.0521 12.2941 15.869C12.3305 15.6858 12.4205 15.5175 12.5525 15.3855C12.6846 15.2534 12.8529 15.1635 13.036 15.127C13.2192 15.0906 13.4091 15.1093 13.5816 15.1808C13.7542 15.2522 13.9017 15.3733 14.0054 15.5286C14.1092 15.6839 14.1646 15.8664 14.1646 16.0532C14.1646 16.3036 14.0651 16.5438 13.888 16.7209C13.7109 16.898 13.4707 16.9975 13.2203 16.9975Z" fill="white"/>
</svg>
<svg width="17" height="19" viewBox="0 0 17 19" fill="none" xmlns="http://www.w3.org/2000/svg">
<path d="M16.9975 12.276C16.9954 11.7091 16.8233 11.1559 16.5034 10.6879C16.1836 10.2199 15.7307 9.85865 15.2033 9.6508L16.9692 3.04067C17.006 2.89989 17.0099 2.7525 16.9804 2.60999C16.9509 2.46747 16.8889 2.33371 16.7992 2.21912C16.7075 2.11176 16.5928 2.02634 16.4637 1.96914C16.3346 1.91194 16.1943 1.88443 16.0532 1.88862H3.11621L2.80458 0.698795C2.75041 0.497574 2.63119 0.319925 2.46551 0.19353C2.29983 0.0671357 2.09699 -0.000905468 1.88861 9.10062e-06H0V1.88862H1.16149L3.50337 10.6329C3.55871 10.8389 3.68216 11.0201 3.85363 11.147C4.02511 11.2739 4.23449 11.339 4.44768 11.3317H14.1646C14.415 11.3317 14.6552 11.4312 14.8323 11.6082C15.0094 11.7853 15.1089 12.0255 15.1089 12.276C15.1089 12.5264 15.0094 12.7666 14.8323 12.9437C14.6552 13.1208 14.415 13.2203 14.1646 13.2203H1.88861C1.63816 13.2203 1.39798 13.3198 1.22089 13.4969C1.04379 13.6739 0.944305 13.9141 0.944305 14.1646C0.944305 14.415 1.04379 14.6552 1.22089 14.8323C1.39798 15.0094 1.63816 15.1089 1.88861 15.1089H3.00289C2.84758 15.5368 2.79768 15.9958 2.8574 16.4471C2.91712 16.8983 3.08471 17.3286 3.34597 17.7013C3.60724 18.0741 3.95448 18.3784 4.3583 18.5885C4.76212 18.7986 5.21062 18.9083 5.66583 18.9083C6.12103 18.9083 6.56954 18.7986 6.97336 18.5885C7.37718 18.3784 7.72442 18.0741 7.98568 17.7013C8.24695 17.3286 8.41454 16.8983 8.47426 16.4471C8.53398 15.9958 8.48407 15.5368 8.32877 15.1089H10.5573C10.416 15.4985 10.3618 15.9144 10.3987 16.3272C10.4356 16.7401 10.5626 17.1398 10.7708 17.4982C10.979 17.8566 11.2633 18.1649 11.6037 18.4015C11.944 18.638 12.3321 18.797 12.7406 18.8672C13.1491 18.9374 13.568 18.9171 13.9678 18.8077C14.3676 18.6983 14.7386 18.5026 15.0544 18.2342C15.3703 17.9659 15.6235 17.6315 15.7961 17.2546C15.9686 16.8778 16.0564 16.4677 16.0532 16.0532C16.0514 15.5653 15.9211 15.0865 15.6755 14.6651C16.0793 14.4105 16.4122 14.058 16.6433 13.6403C16.8744 13.2226 16.9963 12.7533 16.9975 12.276ZM13.3053 9.44306H5.19368L3.62613 3.77723H14.8256L13.3053 9.44306ZM5.66583 16.9975C5.47906 16.9975 5.29649 16.9421 5.1412 16.8384C4.98591 16.7346 4.86488 16.5871 4.7934 16.4146C4.72193 16.242 4.70323 16.0521 4.73967 15.869C4.7761 15.6858 4.86604 15.5175 4.9981 15.3855C5.13017 15.2534 5.29843 15.1635 5.4816 15.127C5.66478 15.0906 5.85465 15.1093 6.0272 15.1808C6.19975 15.2522 6.34723 15.3733 6.45099 15.5286C6.55475 15.6839 6.61013 15.8664 6.61013 16.0532C6.61013 16.3036 6.51064 16.5438 6.33355 16.7209C6.15646 16.898 5.91627 16.9975 5.66583 16.9975ZM13.2203 16.9975C13.0335 16.9975 12.8509 16.9421 12.6956 16.8384C12.5403 16.7346 12.4193 16.5871 12.3478 16.4146C12.2764 16.242 12.2577 16.0521 12.2941 15.869C12.3305 15.6858 12.4205 15.5175 12.5525 15.3855C12.6846 15.2534 12.8529 15.1635 13.036 15.127C13.2192 15.0906 13.4091 15.1093 13.5816 15.1808C13.7542 15.2522 13.9017 15.3733 14.0054 15.5286C14.1092 15.6839 14.1646 15.8664 14.1646 16.0532C14.1646 16.3036 14.0651 16.5438 13.888 16.7209C13.7109 16.898 13.4707 16.9975 13.2203 16.9975Z" fill="white"/>
</svg>
