<svg width="40" height="36" viewBox="0 0 40 36" fill="none" xmlns="http://www.w3.org/2000/svg">
<rect width="40" height="35" fill="#F5F5F5"/>
<path d="M34.8919 12.3938C34.8919 16.0192 31.953 18.9582 28.3275 18.9582C24.7021 18.9582 21.7631 16.0192 21.7631 12.3938C21.7631 8.76833 24.7021 5.82935 28.3275 5.82935C31.953 5.82935 34.8919 8.76833 34.8919 12.3938ZM23.4042 12.3938C23.4042 15.1128 25.6085 17.3171 28.3275 17.3171C31.0466 17.3171 33.2508 15.1128 33.2508 12.3938C33.2508 9.67469 31.0466 7.47045 28.3275 7.47045C25.6085 7.47045 23.4042 9.67469 23.4042 12.3938Z" fill="black"/>
<path d="M15.5446 11.3369C16.9638 9.35322 20.0945 10.42 20.0074 12.8575L19.9308 14.9991C19.8695 16.7175 20.8863 18.292 22.4777 18.9431L23.9488 19.5455C26.0842 20.4192 25.9524 23.4866 23.75 24.1738L11.0949 28.1213C10.0523 28.4465 8.91963 28.0454 8.31365 27.1367L7.29283 25.606C6.72496 24.7545 6.74322 23.6401 7.33869 22.8076L15.5446 11.3369Z" stroke="black" stroke-width="1.6411" stroke-linejoin="round"/>
<line x1="11.2601" y1="17.5358" x2="17.8245" y2="26.2883" stroke="black" stroke-width="1.09407"/>
</svg>
